<svg xmlns="http://www.w3.org/2000/svg" viewBox="0 0 2204 580" role="img" aria-label="Mari — Documentation Automation">
  <defs>
    <linearGradient id="mari-gold-grad" x1="0" y1="0" x2="0" y2="1">
      <stop offset="0%" stop-color="#F1C878"></stop>
      <stop offset="55%" stop-color="#D4A14A"></stop>
      <stop offset="100%" stop-color="#A87B30"></stop>
    </linearGradient>
  </defs>
  <path d="M 180.97246,510.44554 c 10.12041,-3.7764 21.66475,-15.2901 25.41389,-25.3465 l 2.64658,-7.099 53.81687,-0.7431 c 57.43223,-0.7931 59.50371,-1.0024 86.05783,-8.6975 25.23663,-7.3133 47.0552,-18.5412 70.04682,-36.0462 19.51364,-14.8571 45.26183,-43.6288 90.54732,-101.1799 29.50171,-37.4923 60.86579,-63.3143 81.57517,-67.1606 7.07257,-1.3136 15.31438,0 17.18714,2.7308 1.90138,2.7767 0.19015,15.1849 -4.20446,30.4869 -3.58142,12.4704 -22.86182,61.6072 -32.67609,83.2762 -9.774,21.5801 -34.64578,79.5155 -36.86646,85.8754 -1.38439,3.9648 -2.51707,9.2454 -2.51707,11.7347 0,3.9636 0.6166,4.7836 4.96194,6.5992 6.88596,2.8772 16.78009,1.7909 21.15918,-2.3231 1.85209,-1.7399 5.22586,-7.0761 7.49726,-11.8582 11.3253,-23.8435 48.18433,-89.782 66.43629,-118.8503 17.43958,-27.7745 43.7074,-60.2137 58.23756,-71.9199 14.63763,-11.7929 25.13793,-16.4743 37.0979,-16.5397 15.64496,-0.086 19.56138,4.3192 19.40358,21.8233 -0.17883,19.8375 -14.53013,60.5707 -46.78584,132.792 -14.58804,32.6629 -22.79147,53.1476 -23.57599,58.8712 -0.73679,5.3755 -0.54901,5.8204 3.05823,7.2455 6.8766,2.7166 14.44436,2.997 18.88668,0.6998 5.78296,-2.9905 8.5307,-7.1209 24.93563,-37.4832 48.23031,-89.265 71.0691,-124.4116 99.29337,-152.8028 22.56059,-22.6941 36.51867,-30.7764 53.62867,-31.0532 10.40627,-0.1684 15.37897,2.5735 18.10152,9.9809 2.25147,6.1257 1.0563,18.6364 -2.86886,30.0305 -5.16537,14.994 -15.29072,38.8424 -23.14401,54.5113 -23.30282,46.4937 -29.74435,65.2886 -29.82075,87.0099 -0.0726,20.6371 5.48718,31.5271 19.62785,38.4455 8.76032,4.286 22.9035,5.6876 33.80359,3.35 9.71095,-2.0826 26.9791,-9.8669 37.3949,-16.8572 16.20353,-10.8745 42.32116,-36.1891 54.83447,-53.1483 l 3.83683,-5.2 v 11.3929 c 0,17.7557 6.22697,33.5491 18.8771,47.8778 10.0251,11.3552 25.2355,17.1294 45.1229,17.1294 15.2588,0 25.9076,-2.781 41.3333,-10.7944 15.877,-8.2478 38.4961,-27.4677 53.0935,-45.1144 l 7.0936,-8.5754 -0.9117,8.0584 c -1.1185,9.8867 1.2982,25.3075 5.3952,34.4258 10.7201,23.8589 42.2696,28.7462 75.9599,11.7668 17.3879,-8.7632 25.1181,-14.8221 45.6935,-35.8143 17.8866,-18.2488 34.8884,-38.9876 52.2487,-63.7329 9.1071,-12.9812 41.88,-63.2827 45.6986,-70.1406 l 2.2713,-4.079 13.062,-0.01 c 21.0966,-0.013 43.4175,-4.249 59.513,-11.2948 2.1163,-0.9265 1.9588,-0.092 -1.1533,6.1148 -1.9823,3.9533 -6.7531,12.2878 -10.6019,18.5211 -18.4825,29.9334 -40.5107,72.5605 -45.8197,88.6667 -1.4504,4.4 -3.2692,13.4 -4.0418,20 -3.4046,29.0842 5.2617,49.3558 25.0025,58.4836 5.1652,2.3883 8.6461,2.8497 21.4965,2.8497 15.2088,0 15.4358,-0.046 27.9414,-5.7138 14.2538,-6.4597 21.9067,-11.8786 40.0586,-28.3648 10.7248,-9.7406 27.3186,-27.6509 33.613,-36.2798 1.4319,-1.963 1.7204,1.1669 1.7204,18.6667 0,19.8573 0.1921,21.4324 3.4591,28.3584 4.679,9.9196 12.9743,17.882 22.3051,21.41 10.4099,3.936 29.1401,3.1047 40.9024,-1.8154 29.4516,-12.3192 56.7227,-36.5785 107.4853,-95.6148 32.7659,-38.1064 47.075,-51.3906 69.3593,-64.3908 14.1254,-8.2405 21.0672,-15.1172 27.5632,-27.3051 7.6971,-14.4412 8.2589,-19.0077 8.2589,-67.1281 v -43.6173 l 3.9199,-3.9199 c 2.1559,-2.1559 5.8309,-4.3021 8.1666,-4.7692 7.3343,-1.4669 103.8324,-0.9866 106.6678,0.5309 2.4139,1.2918 2.579,3.0381 2.579,27.2677 0,14.2381 0.6553,28.9428 1.4561,32.677 1.8196,8.4845 8.1609,16.9749 15.9395,21.3417 5.7619,3.2346 6.8855,3.3531 37.9378,4 l 32,0.6666 0.7174,96.6667 c 0.7879,106.1645 1.0221,102.6075 -7.1504,108.5806 -3.7208,2.7195 -4.8964,2.7527 -97.3333,2.7527 -86.8061,0 -93.8773,-0.1696 -97.8609,-2.3471 -2.3616,-1.2909 -4.997,-3.6611 -5.8565,-5.2671 -1.1245,-2.1012 -1.6029,-20.3835 -1.7062,-65.2076 -0.079,-34.2582 -0.5435,-62.688 -1.0324,-63.1774 -0.4888,-0.4893 -2.0449,0.2104 -3.4578,1.5548 -1.4129,1.3444 -4.4205,3.4422 -6.6835,4.6617 -2.263,1.2194 -5.2069,4.2194 -6.5421,6.6666 -2.2388,4.1034 -2.4277,8.8056 -2.4277,60.4495 v 56 l 3.5424,6.6666 c 4.4648,8.4028 9.3264,13.0288 17.791,16.9286 l 6.6666,3.0714 h 98 98 l 6.9509,-3.143 c 7.5056,-3.3939 12.1905,-8.5655 16.8006,-18.5458 l 2.9152,-6.311 v -103.3313 -103.3334 l -2.988,-6 c -3.4071,-6.8414 -21.6687,-26.0615 -63.2204,-66.5384 l -28.8751,-28.1282 h -64.5298 -64.5298 l -6.8867,3.4318 c -5.9711,2.9755 -14.1103,10.8898 -18.4103,17.9015 -0.6746,1.1 -1.5266,25.1 -1.8932,53.3333 -0.6384,49.1544 -0.7898,51.5999 -3.5674,57.6116 -2.2886,4.9537 -4.3478,7.0635 -9.7599,10 -16.1038,8.7377 -26.4681,15.3036 -33.3394,21.1209 -13.604,11.5171 -33.3816,31.5356 -57.087,57.7825 -48.5513,53.7562 -64.5475,68.4821 -86.6048,79.7277 -9.9099,5.0525 -14.0139,6.4062 -20.7145,6.8329 -19.7887,1.26 -25.3416,-8.5983 -20.8835,-37.0756 3.2325,-20.6481 16.8332,-60.3159 32.7574,-95.5401 4.6928,-10.3804 8.5243,-19.3804 8.5145,-20 -0.01,-0.6196 5.104,-11.6265 11.3642,-24.4599 12.5521,-25.7317 14.8646,-34.4272 10.8037,-40.6248 -1.8885,-2.8823 -3.2061,-3.3752 -9.0233,-3.3752 -5.989,0 -7.3167,0.5354 -10.9915,4.4318 -5.0243,5.3272 -16.3075,26.9386 -32.6821,62.5979 -14.5652,31.7188 -18.7879,39.5534 -32.4019,60.1176 -39.2203,59.2427 -78.5636,94.1861 -106.0455,94.1861 -15.2562,0 -21.6667,-6.9286 -21.6703,-23.4218 0,-17.9862 4.4467,-32.2325 19.3584,-61.9657 7.4668,-14.8883 29.9143,-55.4561 33.9078,-61.2792 1.2573,-1.8333 7.7863,-13.0051 14.5089,-24.8261 13.3538,-23.4815 14.358,-27.2097 9.0049,-33.4329 -2.7829,-3.2353 -4.1796,-3.7388 -10.3333,-3.7245 -5.946,0.014 -9.9642,1.3728 -24.4488,8.269 -9.5333,4.5389 -21.8333,9.5049 -27.3333,11.0356 -10.5414,2.9337 -38.128,5.3297 -37.1123,3.2234 14.3043,-29.6652 16.4456,-36.8542 16.4456,-55.2112 0,-12.792 -0.3091,-14.5258 -3.5823,-20.0936 -5.7444,-9.7711 -16.5193,-15.9064 -27.9351,-15.9064 -2.6776,0 -8.9778,1.2693 -14.0004,2.8206 -7.9693,2.4615 -10.2694,3.9785 -18.0647,11.9143 -4.913,5.0015 -10.4335,11.3822 -12.2677,14.1794 -4.598,7.0119 -8.8164,23.2514 -8.8164,33.9401 0,18.482 7.5184,32.428 22.6922,42.0919 5.3826,3.4281 7.7107,5.6971 7.2376,7.0537 -2.955,8.4746 -44.491,69.8522 -65.8683,97.3334 -39.6162,50.9278 -79.4995,76.7809 -101.3001,65.6645 -8.5083,-4.3384 -10.1121,-8.1119 -9.9615,-23.4371 0.149,-15.1567 1.7401,-24.1256 7.3102,-41.2066 4.9248,-15.1021 20.8583,-52.5155 29.9622,-70.3542 16.6396,-32.6043 33.6037,-67.5934 34.4292,-71.0115 1.0124,-4.1915 -1.8575,-10.8669 -5.2279,-12.1602 -3.5709,-1.3703 -9.7594,-0.9397 -14.4079,1.0026 -4.9579,2.0715 -11.9317,11.7746 -19.7666,27.5025 -2.8928,5.8071 -5.0062,8.8314 -5.0403,7.2129 -0.1086,-5.1464 -8.1534,-19.086 -13.8166,-23.9406 -13.2748,-11.3794 -34.3034,-17.7808 -52.2422,-15.9032 -50.6732,5.3036 -96.2356,39.6835 -130.712,98.6309 -30.23088,51.6885 -62.21732,91.3881 -88.9477,110.3964 -14.75142,10.4899 -27.25701,15.793 -37.38055,15.8514 -9.49426,0.055 -13.22349,-1.376 -16.45968,-6.3151 -2.79924,-4.2722 -2.84682,-17.6003 -0.0958,-26.8264 3.31971,-11.1333 14.92489,-37.8035 28.90576,-66.4293 21.32965,-43.6724 27.49073,-63.3682 26.41748,-84.4519 -0.46241,-9.084 -1.33906,-13.0209 -4.09481,-18.3896 -16.85053,-32.8277 -64.55398,-28.5965 -104.64595,9.282 -10.51191,9.9316 -33.75089,38.1291 -43.29291,52.5304 -3.02999,4.573 -5.6777,8.1459 -5.88379,7.9398 -0.20609,-0.2061 1.64215,-6.6476 4.10721,-14.3145 8.23398,-25.6098 7.63762,-43.6617 -1.9315,-58.467 -8.77048,-13.5696 -18.61267,-18.8062 -35.34622,-18.8062 -32.88499,0 -69.01435,27.5961 -104.31945,79.6806 -3.3501,4.9423 -5.65378,7.786 -5.11928,6.3194 2.67912,-7.3516 8.9191,-29.7692 10.73975,-38.5836 4.03243,-19.5222 2.2636,-29.0391 -7.08283,-38.1083 -6.86964,-6.6658 -13.63299,-9.3188 -23.67902,-9.2884 -14.56404,0.044 -31.28603,6.3536 -51.50784,19.435 -17.73276,11.4713 -43.64527,39.6667 -90.50606,98.4796 -17.61323,22.1056 -44.03814,49.3806 -57.77256,59.631 -27.83337,20.7731 -59.64106,33.6793 -91.192,37.0019 -7.07677,0.7453 -32.87253,1.5637 -57.32392,1.8188 l -44.45706,0.4638 -3.09389,-6.9959 c -5.26458,-11.9041 -18.46514,-23.914 -29.26391,-26.6243 l -3.75906,-0.9435 0.95445,-24.6018 c 1.31929,-34.0057 4.3738,-44.0518 17.33462,-57.0126 8.09536,-8.0954 18.32354,-12.6005 33.69596,-14.8418 16.22292,-2.3654 28.82284,-7.1969 35.4596,-13.5973 6.63705,-6.4006 13.74334,-17.1799 17.56724,-26.6472 2.44081,-6.0431 4.42874,-8.5402 9.77656,-12.2808 12.00565,-8.3974 16.25142,-16.7178 16.23005,-31.8056 -0.0196,-13.8476 -7.47495,-24.9524 -21.8322,-32.5193 -11.43791,-6.0282 -30.76085,-2.3167 -39.01625,7.4943 -8.20949,9.7564 -11.39999,26.7395 -7.27036,38.7002 2.19533,6.3584 9.4617,14.6154 14.81238,16.8317 4.83497,2.0027 5.3212,6.8293 1.4487,14.3805 -4.72118,9.2061 -12.25105,14.0613 -24.12976,15.5586 -21.26902,2.6809 -38.16214,8.9524 -51.92506,19.277 -3.74866,2.8122 -4.42188,2.9962 -3.66666,1.0022 0.50878,-1.3433 0.92505,-24.0081 0.92505,-50.3663 v -47.9239 l 3.32311,-1.2635 c 5.49651,-2.0898 15.58262,-12.2799 18.38335,-18.5729 3.28422,-7.3794 3.46586,-20.066 0.39273,-27.431 -2.7449,-6.5783 -11.69789,-15.9907 -18.60266,-19.5572 -17.06514,-8.8147 -37.24763,-1.4216 -46.2963,16.9589 -3.81179,7.7428 -4.16293,9.4688 -3.58099,17.6021 0.35486,4.9596 1.66964,10.9985 2.92174,13.4198 3.55403,6.8728 10.84827,14.2293 16.74545,16.8886 L 152,224.40504 v 98.2188 98.2188 l -7.52047,3.117 c -14.31825,5.9346 -23.07215,16.6339 -27.30517,33.3732 -2.34638,9.2787 -2.49391,11.6626 -1.13454,18.333 6.07674,29.8189 35.70181,45.6868 64.93264,34.7797 z m -24.62095,-18.345 c -14.39309,-3.6346 -22.74925,-20.5898 -16.96733,-34.4279 2.64641,-6.3337 5.45239,-9.3626 11.5627,-12.4812 10.0875,-5.1484 24.20132,-1.6265 31.4227,7.8413 3.16949,4.1554 3.63042,5.9702 3.63042,14.2945 0,7.8892 -0.55455,10.3441 -3.2131,14.224 -6.33526,9.2457 -16.12579,13.1527 -26.43539,10.5493 z m 882.98179,-31.2031 c -18.362,-8.9178 -25.448,-26.3163 -22.041,-54.1179 4.2418,-34.6129 24.7036,-76.0258 51.3281,-103.8833 26.7694,-28.0092 58.4375,-42.2746 86.1277,-38.7977 17.6182,2.2122 26.5712,8.2452 33.8616,22.8179 6.7699,13.5323 6.462,16.7184 -3.8145,39.4654 -4.6958,10.3944 -10.0067,21.4608 -11.8017,24.5919 -15.5009,27.0376 -21.5286,36.6724 -31.5461,50.4236 -14.0334,19.2639 -34.2577,40.2773 -46.7714,48.5964 -14.1804,9.4271 -23.998,13.0082 -37.3427,13.621 -9.9147,0.4553 -12.1678,0.1152 -18,-2.7173 z m 326.6666,-187.547 c -6.5797,-2.8749 -9.0871,-5.6143 -12.7798,-13.9624 -6.9208,-15.6455 1.9104,-39.4621 17.6004,-47.4666 6.7882,-3.4631 11.2948,-3.2606 15.24,0.6846 6.7049,6.7049 3.1368,24.6285 -10.9293,54.901 l -3.798,8.1737 z M 265.35252,257.20294 c -6.73945,-1.4424 -12.01919,-7.8755 -12.01919,-14.645 0,-9.9768 5.24261,-15.8138 14.24654,-15.8616 11.39795,-0.061 16.42013,4.9849 16.42013,16.4964 0,10.1991 -8.08214,16.2714 -18.64748,14.0102 z m 1710.64738,-14.1132 c -6.3954,-1.0497 -10.805,-3.4903 -12.5464,-6.9442 -2.0798,-4.1251 -4.2374,-47.3261 -2.3276,-46.6054 0.6703,0.2529 13.6433,12.6099 28.829,27.4599 l 27.6103,27 -19.116,-0.1816 c -10.5138,-0.1 -20.616,-0.4278 -22.4493,-0.7287 z M 156.43397,203.38784 c -15.59785,-6.7847 -8.4944,-32.6138 8.11256,-29.4984 14.12652,2.6502 17.08587,24.1124 4.0744,29.5489 -5.51677,2.3051 -6.78359,2.2998 -12.18696,-0.051 z m 1832.05283,219.182 c 4.2044,-3.3072 4.7609,-10.1066 1.1798,-14.4147 -2.3079,-2.7763 -2.9973,-2.8079 -63.2291,-2.8908 -64.4737,-0.089 -64.4755,-0.089 -67.8306,6.1805 -2.1465,4.0108 -0.5988,7.8706 4.4534,11.1067 4.1426,2.6534 6.0667,2.7375 63.0931,2.7593 57.5053,0.022 58.8987,-0.039 62.3334,-2.741 z m 1.1709,-46.1968 c 3.1708,-2.8696 2.9624,-9.8917 -0.4212,-14.1932 l -2.7635,-3.5132 h -59.9909 c -40.4234,0 -60.8689,0.4699 -62.6827,1.4407 -3.3572,1.7967 -6.8584,9.8896 -5.7667,13.3293 1.824,5.7469 3.9629,5.9186 68.2175,5.4763 53.5527,-0.3686 61.3535,-0.6811 63.4075,-2.5399 z m 0.7948,-46.4358 c 2.325,-5.1026 1.8697,-10.4217 -1.1712,-13.6858 -2.7105,-2.9094 -2.8924,-2.9187 -61,-3.1294 -32.0548,-0.1162 -59.4814,-0.1136 -60.9481,0.01 -3.7125,0.3021 -8.6666,6.3198 -8.6666,10.5273 0,1.9285 1.3046,4.895 2.8991,6.5923 l 2.899,3.0859 h 62.2203 62.2202 z m -332.2061,-123.3554 c 12.6438,-4.7771 18.1177,-21.9802 10.6301,-33.4077 -3.3218,-5.0696 -11.9029,-9.3031 -19.1937,-9.4692 -11.4,-0.2597 -21.4768,7.0717 -23.6183,17.1835 -1.9178,9.0551 4.5834,21.4818 13.2026,25.2361 4.9568,2.159 13.9047,2.3746 18.9793,0.4573 z" fill="url(#mari-gold-grad)" fill-rule="evenodd"></path>
</svg>